<svg version="1.1" id="Layer_1" xmlns="http://www.w3.org/2000/svg" xmlns:xlink="http://www.w3.org/1999/xlink" x="0px" y="0px"
	 width="100%" viewBox="0 0 352 384" enable-background="new 0 0 352 384" xml:space="preserve">
<path fill="#000000" opacity="1.000000" stroke="none" 
	d="
M80.502457,333.911499 
	C75.011604,326.499207 70.050629,325.403656 59.601562,330.563202 
	C57.366520,331.666779 55.323383,333.156799 53.096424,334.279541 
	C50.247375,335.715881 47.261120,336.116180 44.729465,333.714508 
	C42.083996,331.204895 42.042793,328.038300 43.527779,324.956604 
	C46.823727,318.116760 52.006756,312.953918 58.776218,309.664429 
	C64.666580,306.802155 69.268021,302.933563 72.601540,297.193542 
	C75.834511,291.626678 80.984177,288.282898 87.393265,287.023010 
	C91.155983,286.283386 93.944756,287.395020 95.532669,291.030151 
	C96.332359,292.860870 97.103577,294.707886 97.996933,296.492828 
	C99.186417,298.869415 100.041214,301.636719 101.843460,303.427277 
	C104.134056,305.703033 106.283279,301.737915 108.638481,302.233521 
	C121.247398,304.886963 134.317657,300.401642 146.745010,304.623566 
	C150.898727,306.034668 152.632919,304.507263 153.731430,300.944183 
	C156.965897,290.452942 160.360718,280.007294 163.363754,269.450256 
	C164.695007,264.770294 164.036301,259.935913 160.521210,256.317657 
	C149.652603,245.130157 151.250443,231.372971 152.145050,217.713654 
	C152.220428,216.562714 152.732986,215.357697 152.516068,214.284164 
	C151.378494,208.654556 154.196930,204.564880 157.809097,200.982361 
	C162.770706,196.061508 164.553894,190.029968 161.616928,183.710083 
	C158.518753,177.043320 156.892426,170.040039 157.187271,162.896851 
	C157.466919,156.122269 152.990097,151.483887 151.140366,145.720291 
	C150.442810,143.546722 148.029587,144.176666 146.269882,144.448395 
	C123.993057,147.888306 101.491104,147.675278 79.062958,148.329315 
	C71.482674,148.550385 63.822212,147.140289 56.252525,146.086700 
	C52.971310,145.630005 50.362457,146.273300 47.931263,148.307251 
	C46.909115,149.162384 45.970470,150.161728 44.838230,150.833008 
	C40.441334,153.439774 35.384670,157.687836 30.697052,154.324463 
	C21.622147,147.813232 19.871037,140.806580 23.413641,132.987122 
	C25.162111,129.127777 28.749163,128.097900 32.446533,127.742287 
	C38.910431,127.120583 45.392429,127.010956 50.705608,122.302284 
	C52.279099,120.907806 54.908657,120.271637 56.897377,121.094345 
	C66.098732,124.900818 74.944191,121.068962 83.943100,120.288216 
	C91.747345,119.611107 99.597229,116.853149 107.089607,117.322784 
	C116.366707,117.904305 124.431000,115.295944 132.829910,112.882759 
	C134.253189,112.473831 135.952011,112.159599 136.926926,111.197227 
	C142.508377,105.687531 149.889725,104.829491 156.950531,103.297104 
	C163.361115,101.905830 166.916046,98.605392 167.733780,92.076920 
	C170.935028,66.518669 195.266922,50.700932 220.287338,59.433155 
	C229.615311,62.688652 239.478729,65.449112 245.419266,74.637070 
	C248.215210,78.961403 250.191528,83.612808 250.138702,88.640717 
	C250.061523,95.987648 251.326584,103.223450 251.319290,110.536270 
	C251.315613,114.221733 252.696442,117.383644 254.773987,120.249077 
	C258.526093,125.424149 260.329132,131.159439 260.354218,137.527725 
	C260.360046,139.004150 260.503296,140.566925 260.999146,141.939789 
	C263.409302,148.612869 263.800262,154.976105 260.611023,161.743988 
	C258.114227,167.042389 259.373047,168.893555 264.661163,171.634354 
	C270.821533,174.827209 277.604401,177.013107 281.555481,183.504059 
	C285.397064,189.815094 284.671021,192.032852 278.577667,195.911011 
	C271.720215,200.275513 264.385742,203.999786 258.364502,209.609406 
	C256.735168,211.127319 254.733871,211.913025 252.753403,212.793869 
	C250.818100,213.654633 248.650681,214.300156 247.887894,216.777969 
	C249.421585,218.954376 251.939285,218.889923 254.109802,219.415802 
	C261.875732,221.297379 265.165558,224.728683 266.128632,232.678329 
	C267.855896,246.935898 272.060211,260.613800 276.285767,274.223816 
	C278.369537,280.935455 282.771515,286.838654 283.310089,294.239166 
	C283.530029,297.261627 286.290558,298.952545 289.032745,299.993866 
	C292.568817,301.336670 295.294067,303.539490 297.651672,306.519745 
	C301.404480,311.263641 306.817566,312.341034 312.443512,309.674225 
	C316.657806,307.676575 320.757111,305.440430 325.292755,304.202820 
	C328.784088,303.250183 332.019043,303.535858 334.272614,306.668793 
	C336.563568,309.853607 338.124695,313.093445 335.858398,317.252502 
	C330.957611,326.246307 324.558533,333.523560 314.227600,335.890228 
	C304.195007,338.188538 297.481323,344.924744 290.819672,351.924896 
	C286.852112,356.094086 281.785797,357.470093 276.298126,357.212799 
	C270.903778,356.959839 268.631348,354.276031 267.563873,348.891876 
	C266.131073,341.665100 265.167908,334.464478 265.924194,327.081879 
	C266.107880,325.289001 266.176910,323.132690 264.825134,321.822571 
	C259.242584,316.412079 257.088776,309.085938 253.604294,302.497833 
	C251.971130,299.410034 250.267227,296.311249 248.197357,293.511719 
	C241.342957,284.240997 238.080612,273.332428 234.034729,262.801788 
	C232.728043,259.400757 231.316193,257.691742 227.503418,258.999512 
	C225.639282,259.638885 223.603775,259.859222 221.624603,260.063843 
	C218.605682,260.375977 217.028198,261.917542 215.983444,264.817108 
	C212.942719,273.256134 208.790070,281.281586 207.074768,290.218445 
	C206.654541,292.407898 204.992249,294.343781 203.992172,296.439758 
	C199.987564,304.832672 195.742447,313.086060 191.315247,321.262177 
	C187.665665,328.002167 183.722610,334.427948 179.049622,340.273376 
	C174.154465,346.396667 166.966751,347.642242 159.482727,345.417633 
	C144.978210,341.106232 130.568542,336.470978 116.029198,332.283752 
	C110.120918,330.582153 104.051125,329.487488 98.388855,326.934692 
	C96.441238,326.056610 94.295441,325.490479 92.203773,326.683472 
	C91.895012,334.354187 87.924797,336.925385 80.502457,333.911499 
z"/>
</svg>